<svg width="50" height="50" viewBox="0 0 50 50" fill="none" xmlns="http://www.w3.org/2000/svg">
<path d="M17.7069 41.7224L2.28072 26.2496C2.19175 26.1604 2.12115 26.0543 2.07298 25.9375C2.0248 25.8207 2 25.6954 2 25.5689C2 25.4424 2.0248 25.3171 2.07298 25.2003C2.12115 25.0835 2.19175 24.9774 2.28072 24.8882L6.17514 20.9567C6.54727 20.5815 7.14874 20.5815 7.52088 20.9567L17.6767 31.1366C18.0488 31.5119 18.6546 31.5075 19.0267 31.1323L41.4672 8.28526C41.8394 7.90564 42.4451 7.90564 42.8216 8.2809L46.7204 12.2124C47.0925 12.5876 47.0925 13.1941 46.7247 13.5694L22.2764 38.4454L22.2807 38.4498L19.057 41.718C18.6849 42.0933 18.0791 42.0933 17.7069 41.7224Z" fill="#4B4B4B" stroke="#4B4B4B" stroke-width="4" stroke-miterlimit="10"/>
</svg>
