<svg width="50" height="50" viewBox="0 0 50 50" fill="none" xmlns="http://www.w3.org/2000/svg">
<path d="M10.8579 39.1421C9.00069 37.285 7.5275 35.0802 6.52241 32.6537C5.51732 30.2272 5 27.6264 5 25C5 22.3736 5.51732 19.7728 6.52241 17.3463C7.5275 14.9198 9.00069 12.715 10.8579 10.8579C12.715 9.00069 14.9198 7.5275 17.3463 6.52241C19.7728 5.51732 22.3736 5 25 5C27.6264 5 30.2272 5.51732 32.6537 6.52241C35.0802 7.5275 37.285 9.00069 39.1421 10.8579M10.8579 39.1421C12.715 40.9993 14.9198 42.4725 17.3463 43.4776C19.7728 44.4827 22.3736 45 25 45C27.6264 45 30.2272 44.4827 32.6537 43.4776C35.0802 42.4725 37.285 40.9993 39.1421 39.1421C40.9993 37.285 42.4725 35.0802 43.4776 32.6537C44.4827 30.2272 45 27.6264 45 25C45 22.3736 44.4827 19.7728 43.4776 17.3463C42.4725 14.9198 40.9993 12.715 39.1421 10.8579M10.8579 39.1421L39.1421 10.8579" stroke="#FF3D00" stroke-width="5" stroke-linecap="round" stroke-linejoin="round"/>
</svg>
