<svg width="261" height="50" viewBox="0 0 261 50" fill="none" xmlns="http://www.w3.org/2000/svg">
<path d="M22.543 21.4238C22.4141 20.4863 22.0977 19.6777 21.5938 18.998C21.1016 18.3066 20.457 17.7793 19.6602 17.416C18.8633 17.0527 17.9785 16.8711 17.0059 16.8711C15.6816 16.8711 14.5215 17.2051 13.5254 17.873C12.541 18.5293 11.7734 19.4902 11.2227 20.7559C10.6719 22.0098 10.3965 23.5156 10.3965 25.2734C10.3965 27.0781 10.6719 28.6074 11.2227 29.8613C11.7734 31.1035 12.541 32.0527 13.5254 32.709C14.5215 33.3535 15.6641 33.6758 16.9531 33.6758C17.9258 33.6758 18.7988 33.5 19.5723 33.1484C20.3574 32.7969 21.0078 32.2988 21.5234 31.6543C22.0391 30.998 22.3789 30.2188 22.543 29.3164L27.9043 29.3691C27.7051 30.9629 27.1309 32.4453 26.1816 33.8164C25.2441 35.1875 23.9785 36.2891 22.3848 37.1211C20.791 37.9414 18.957 38.3516 16.8828 38.3516C14.6094 38.3516 12.5762 37.8359 10.7832 36.8047C8.99023 35.7617 7.58398 34.2559 6.56445 32.2871C5.55664 30.3066 5.05273 27.9688 5.05273 25.2734C5.05273 22.5547 5.5625 20.2109 6.58203 18.2422C7.61328 16.2734 9.01953 14.7734 10.8008 13.7422C12.5938 12.7109 14.6211 12.1953 16.8828 12.1953C18.8398 12.1953 20.6094 12.5586 22.1914 13.2852C23.7734 14.0117 25.0566 15.0723 26.041 16.4668C27.0371 17.8496 27.6582 19.502 27.9043 21.4238H22.543ZM36.6758 38H31.4727V12.5469H36.5352V22.25H36.7461C37.2031 21.1133 37.9121 20.2344 38.873 19.6133C39.8457 18.9805 41.0352 18.6641 42.4414 18.6641C43.7773 18.6641 44.9434 18.9512 45.9395 19.5254C46.9355 20.0996 47.7031 20.9258 48.2422 22.0039C48.7812 23.082 49.0508 24.3594 49.0508 25.8359V38H43.8477V26.7324C43.8477 25.9473 43.7129 25.2734 43.4434 24.7109C43.1738 24.1484 42.7812 23.7207 42.2656 23.4277C41.75 23.1348 41.1289 22.9883 40.4023 22.9883C39.6641 22.9883 39.0195 23.1465 38.4688 23.4629C37.918 23.7676 37.4785 24.2188 37.1504 24.8164C36.834 25.4141 36.6758 26.123 36.6758 26.9434V38ZM64.291 29.7559C63.8223 29.7676 62.9961 29.8145 61.8125 29.8965L60.125 30.0371C59.1992 30.1074 58.4727 30.3594 57.9453 30.793C57.418 31.2148 57.1543 31.7891 57.1543 32.5156C57.1543 32.9844 57.2715 33.3828 57.5059 33.7109C57.752 34.0391 58.0918 34.291 58.5254 34.4668C58.9707 34.6426 59.4688 34.7305 60.0195 34.7305C60.8047 34.7305 61.502 34.5781 62.1113 34.2734C62.7207 33.957 63.1953 33.5293 63.5352 32.9902C63.875 32.4395 64.0449 31.8359 64.0449 31.1797L64.0098 25.0098C64.0098 24.4707 63.8926 24.0137 63.6582 23.6387C63.4355 23.252 63.0898 22.9648 62.6211 22.7773C62.1641 22.5781 61.6191 22.4785 60.9863 22.4785C60.1074 22.4785 59.3926 22.666 58.8418 23.041C58.291 23.4043 57.9453 23.9199 57.8047 24.5879H52.8477C52.9648 23.4629 53.3574 22.4551 54.0254 21.5645C54.7051 20.6621 55.6426 19.9531 56.8379 19.4375C58.0449 18.9219 59.4688 18.6641 61.1094 18.6641C62.5859 18.6641 63.9336 18.8926 65.1523 19.3496C66.3711 19.8066 67.3496 20.5215 68.0879 21.4941C68.8379 22.4551 69.2129 23.668 69.2129 25.1328V38H64.2734V35.3633H64.1328C63.8164 35.9609 63.4004 36.4824 62.8848 36.9277C62.3691 37.373 61.748 37.7246 61.0215 37.9824C60.3066 38.2285 59.4746 38.3516 58.5254 38.3516C57.2949 38.3516 56.2051 38.1348 55.2559 37.7012C54.3066 37.2676 53.5566 36.623 53.0059 35.7676C52.4551 34.9121 52.1797 33.8809 52.1797 32.6738C52.1797 30.6816 52.8359 29.2344 54.1484 28.332C55.4727 27.4297 57.1836 26.9141 59.2812 26.7852C59.6328 26.75 60.7168 26.6914 62.5332 26.6094L64.2559 26.5391L64.291 29.7559ZM78.3711 38H73.168V12.5469H78.3711V38ZM87.6172 38H82.4141V12.5469H87.6172V38ZM100.326 38.3691C98.4043 38.3691 96.7285 37.9707 95.2988 37.1738C93.8809 36.377 92.7852 35.2402 92.0117 33.7637C91.25 32.2871 90.8691 30.5527 90.8691 28.5605C90.8691 26.5918 91.25 24.8633 92.0117 23.375C92.7852 21.875 93.8691 20.7148 95.2637 19.8945C96.6582 19.0742 98.2754 18.6641 100.115 18.6641C101.838 18.6641 103.373 19.0273 104.721 19.7539C106.068 20.4688 107.129 21.5527 107.902 23.0059C108.676 24.459 109.062 26.2344 109.062 28.332V29.791H92.9961V26.5391H104.158C104.158 25.7656 103.988 25.0801 103.648 24.4824C103.309 23.873 102.84 23.3984 102.242 23.0586C101.645 22.7188 100.965 22.5488 100.203 22.5488C99.3945 22.5488 98.6738 22.7363 98.041 23.1113C97.4082 23.4746 96.9102 23.9785 96.5469 24.623C96.1953 25.2676 96.0137 25.9707 96.002 26.7324V29.791C96.002 30.7402 96.1836 31.5723 96.5469 32.2871C96.9102 33.002 97.4199 33.5469 98.0762 33.9219C98.7441 34.2969 99.5176 34.4844 100.396 34.4844C100.982 34.4844 101.516 34.4023 101.996 34.2383C102.477 34.0625 102.881 33.8398 103.209 33.5703C103.549 33.2891 103.807 32.9609 103.982 32.5859H108.939C108.693 33.7461 108.184 34.7656 107.41 35.6445C106.648 36.5117 105.658 37.1855 104.439 37.666C103.232 38.1348 101.861 38.3691 100.326 38.3691ZM117.535 38H112.332V18.9102H117.289V22.25H117.5C117.945 21.125 118.66 20.2461 119.645 19.6133C120.641 18.9805 121.842 18.6641 123.248 18.6641C124.572 18.6641 125.727 18.9512 126.711 19.5254C127.695 20.0996 128.457 20.9258 128.996 22.0039C129.547 23.082 129.822 24.3594 129.822 25.8359V38H124.619V26.7324C124.619 25.9473 124.484 25.2793 124.215 24.7285C123.957 24.166 123.57 23.7383 123.055 23.4453C122.539 23.1406 121.918 22.9883 121.191 22.9883C120.465 22.9883 119.826 23.1465 119.275 23.4629C118.725 23.7676 118.297 24.2188 117.992 24.8164C117.688 25.4023 117.535 26.1113 117.535 26.9434V38ZM142.408 45.5586C140.697 45.5586 139.191 45.3125 137.891 44.8203C136.602 44.3281 135.588 43.6309 134.85 42.7285C134.123 41.8262 133.707 40.7715 133.602 39.5645H138.717C138.881 40.3145 139.291 40.8711 139.947 41.2344C140.604 41.5977 141.465 41.7793 142.531 41.7793C143.809 41.7793 144.799 41.4863 145.502 40.9004C146.217 40.3262 146.574 39.4062 146.574 38.1406V34.625H146.346C146.064 35.2227 145.695 35.75 145.238 36.207C144.793 36.6523 144.201 37.0215 143.463 37.3145C142.725 37.5957 141.863 37.7363 140.879 37.7363C139.414 37.7363 138.096 37.3848 136.924 36.6816C135.752 35.9785 134.826 34.9238 134.146 33.5176C133.467 32.1113 133.127 30.3828 133.127 28.332C133.127 26.2461 133.473 24.4766 134.164 23.0234C134.855 21.5703 135.781 20.4805 136.941 19.7539C138.113 19.0273 139.426 18.6641 140.879 18.6641C141.887 18.6641 142.754 18.834 143.48 19.1738C144.207 19.502 144.775 19.9004 145.186 20.3691C145.596 20.8379 145.977 21.418 146.328 22.1094H146.539V18.9102H151.707V38.2109C151.707 39.7812 151.314 41.1172 150.529 42.2188C149.744 43.332 148.654 44.1641 147.26 44.7148C145.865 45.2773 144.248 45.5586 142.408 45.5586ZM142.496 33.7988C143.352 33.7988 144.084 33.582 144.693 33.1484C145.314 32.7148 145.783 32.0938 146.1 31.2852C146.428 30.4766 146.592 29.5098 146.592 28.3848C146.592 27.248 146.428 26.2637 146.1 25.4316C145.783 24.5879 145.32 23.9434 144.711 23.498C144.102 23.0527 143.363 22.8301 142.496 22.8301C141.629 22.8301 140.891 23.0645 140.281 23.5332C139.672 23.9902 139.209 24.6406 138.893 25.4844C138.588 26.3164 138.436 27.2832 138.436 28.3848C138.436 29.4863 138.588 30.4414 138.893 31.25C139.209 32.0586 139.672 32.6855 140.281 33.1309C140.891 33.5762 141.629 33.7988 142.496 33.7988ZM164.416 38.3691C162.494 38.3691 160.818 37.9707 159.389 37.1738C157.971 36.377 156.875 35.2402 156.102 33.7637C155.34 32.2871 154.959 30.5527 154.959 28.5605C154.959 26.5918 155.34 24.8633 156.102 23.375C156.875 21.875 157.959 20.7148 159.354 19.8945C160.748 19.0742 162.365 18.6641 164.205 18.6641C165.928 18.6641 167.463 19.0273 168.811 19.7539C170.158 20.4688 171.219 21.5527 171.992 23.0059C172.766 24.459 173.152 26.2344 173.152 28.332V29.791H157.086V26.5391H168.248C168.248 25.7656 168.078 25.0801 167.738 24.4824C167.398 23.873 166.93 23.3984 166.332 23.0586C165.734 22.7188 165.055 22.5488 164.293 22.5488C163.484 22.5488 162.764 22.7363 162.131 23.1113C161.498 23.4746 161 23.9785 160.637 24.623C160.285 25.2676 160.104 25.9707 160.092 26.7324V29.791C160.092 30.7402 160.273 31.5723 160.637 32.2871C161 33.002 161.51 33.5469 162.166 33.9219C162.834 34.2969 163.607 34.4844 164.486 34.4844C165.072 34.4844 165.605 34.4023 166.086 34.2383C166.566 34.0625 166.971 33.8398 167.299 33.5703C167.639 33.2891 167.896 32.9609 168.072 32.5859H173.029C172.783 33.7461 172.273 34.7656 171.5 35.6445C170.738 36.5117 169.748 37.1855 168.529 37.666C167.322 38.1348 165.951 38.3691 164.416 38.3691ZM179.463 38.3164C178.936 38.3164 178.443 38.1816 177.986 37.9121C177.529 37.6309 177.172 37.2676 176.914 36.8223C176.656 36.3652 176.527 35.873 176.527 35.3457C176.527 34.8301 176.656 34.3496 176.914 33.9043C177.172 33.4473 177.529 33.0898 177.986 32.832C178.443 32.5742 178.936 32.4453 179.463 32.4453C179.99 32.4453 180.477 32.5742 180.922 32.832C181.379 33.0898 181.742 33.4473 182.012 33.9043C182.281 34.3496 182.416 34.8301 182.416 35.3457C182.416 35.873 182.281 36.3652 182.012 36.8223C181.742 37.2676 181.379 37.6309 180.922 37.9121C180.477 38.1816 179.99 38.3164 179.463 38.3164ZM185.141 18.9102H190.414L193.402 31.8125H193.578L196.707 18.9102H201.875L205.057 31.7246H205.232L208.168 18.9102H213.424L208.221 38H202.719L199.396 25.8887H199.168L195.846 38H190.361L185.141 18.9102ZM216.043 18.9102H221.246V38H216.043V18.9102ZM218.645 16.3965C218.129 16.3965 217.654 16.2793 217.221 16.0449C216.787 15.8105 216.441 15.4883 216.184 15.0781C215.926 14.668 215.797 14.2285 215.797 13.7598C215.797 13.2793 215.926 12.8398 216.184 12.4414C216.441 12.0313 216.787 11.709 217.221 11.4746C217.654 11.2402 218.129 11.123 218.645 11.123C219.16 11.123 219.635 11.2402 220.068 11.4746C220.502 11.709 220.842 12.0313 221.088 12.4414C221.346 12.8398 221.475 13.2793 221.475 13.7598C221.475 14.2285 221.346 14.668 221.088 15.0781C220.842 15.4883 220.502 15.8105 220.068 16.0449C219.635 16.2793 219.16 16.3965 218.645 16.3965ZM235.344 22.8125H223.918V18.9102H235.344V22.8125ZM231.758 14.3398V32.1289C231.758 32.6211 231.828 33.0078 231.969 33.2891C232.121 33.5586 232.326 33.752 232.584 33.8691C232.854 33.9746 233.182 34.0332 233.568 34.0449C234.061 34.0566 234.74 34.0273 235.607 33.957V38.0703C234.822 38.1992 233.914 38.2637 232.883 38.2637C231.594 38.2637 230.475 38.0703 229.525 37.6836C228.576 37.2852 227.838 36.6816 227.311 35.873C226.783 35.0645 226.525 34.0566 226.537 32.8496V14.3398H231.758ZM244.238 38H239.035V12.5469H244.098V22.25H244.309C244.766 21.1133 245.475 20.2344 246.436 19.6133C247.408 18.9805 248.598 18.6641 250.004 18.6641C251.34 18.6641 252.506 18.9512 253.502 19.5254C254.498 20.0996 255.266 20.9258 255.805 22.0039C256.344 23.082 256.613 24.3594 256.613 25.8359V38H251.41V26.7324C251.41 25.9473 251.275 25.2734 251.006 24.7109C250.736 24.1484 250.344 23.7207 249.828 23.4277C249.312 23.1348 248.691 22.9883 247.965 22.9883C247.227 22.9883 246.582 23.1465 246.031 23.4629C245.48 23.7676 245.041 24.2188 244.713 24.8164C244.396 25.4141 244.238 26.123 244.238 26.9434V38Z" fill="#111111"/>
</svg>
