<svg width="50" height="50" viewBox="0 0 50 50" fill="none" xmlns="http://www.w3.org/2000/svg">
<g clip-path="url(#clip0_95_3)">
<path fill-rule="evenodd" clip-rule="evenodd" d="M25 50C18.3696 50 12.0107 47.3661 7.32233 42.6777C2.63392 37.9893 0 31.6304 0 25C0 18.3696 2.63392 12.0107 7.32233 7.32233C12.0107 2.63392 18.3696 0 25 0C31.6304 0 37.9893 2.63392 42.6777 7.32233C47.3661 12.0107 50 18.3696 50 25C50 31.6304 47.3661 37.9893 42.6777 42.6777C37.9893 47.3661 31.6304 50 25 50ZM39.0233 20L25 34.0233L10.9767 20H39.0233Z" fill="black"/>
</g>
<defs>
<clipPath id="clip0_95_3">
<rect width="50" height="50" fill="white"/>
</clipPath>
</defs>
</svg>
