<svg width="50" height="50" viewBox="0 0 50 50" fill="none" xmlns="http://www.w3.org/2000/svg">
<path fill-rule="evenodd" clip-rule="evenodd" d="M25.9449 2.10216C24.9707 1.9334 23.9868 1.84952 23.0042 1.84984C22.0216 1.84952 21.0377 1.9334 20.0635 2.10216C17.4295 2.55843 14.9394 3.62245 12.7926 5.209C10.6459 6.79556 8.90205 8.86057 7.70088 11.2387C6.4997 13.6167 5.87453 16.2418 5.87542 18.9037L5.87542 23.1481V31.3963C5.87542 31.7376 5.80732 32.072 5.67862 32.3813C5.54991 32.6907 5.3606 32.9751 5.11817 33.2164C4.87574 33.4578 4.59013 33.6463 4.27941 33.7744C3.96868 33.9026 3.63285 33.9704 3.29001 33.9704C2.55005 33.9704 1.8404 34.263 1.31718 34.784C0.793949 35.3049 0.5 36.0114 0.5 36.7481C0.5 37.4849 0.793949 38.1914 1.31718 38.7123C1.38258 38.7774 1.4509 38.839 1.52182 38.8969C2.01829 39.3019 2.64255 39.5259 3.29001 39.5259H42.7184C42.7647 39.5259 42.8108 39.5248 42.8568 39.5225C43.5464 39.4884 44.2007 39.2007 44.6913 38.7123C45.2145 38.1914 45.5084 37.4849 45.5084 36.7481C45.5084 36.0114 45.2145 35.3049 44.6913 34.784C44.168 34.263 43.4584 33.9704 42.7184 33.9704C42.3789 33.9704 42.0427 33.9038 41.729 33.7744C41.4153 33.6451 41.1303 33.4555 40.8903 33.2164C40.6502 32.9774 40.4597 32.6936 40.3298 32.3813C40.1999 32.069 40.133 31.7343 40.133 31.3963L40.133 23.1481L40.133 18.9037C40.1339 16.2418 39.5087 13.6167 38.3076 11.2387C37.1064 8.86057 35.3626 6.79556 33.2158 5.209C31.069 3.62245 28.5789 2.55843 25.9449 2.10216ZM26.7224 50H19.2861H19.2823C18.5424 50 17.8327 49.7073 17.3095 49.1864C16.7863 48.6655 16.4923 47.9589 16.4923 47.2222C16.4923 46.4855 16.7863 45.779 17.3095 45.258C17.8327 44.7371 18.5424 44.4444 19.2823 44.4444H19.2861H26.7224H26.7261C27.466 44.4444 28.1757 44.7371 28.6989 45.258C29.2222 45.779 29.5161 46.4855 29.5161 47.2222C29.5161 47.9589 29.2222 48.6655 28.6989 49.1864C28.1757 49.7073 27.466 50 26.7261 50H26.7224Z" fill="#111111"/>
</svg>
