<svg width="50" height="50" viewBox="0 0 50 50" fill="none" xmlns="http://www.w3.org/2000/svg">
<g clip-path="url(#clip0_16_11)">
<path fill-rule="evenodd" clip-rule="evenodd" d="M27.9611 2.58148C25.4023 1.81004 22.6976 1.64589 20.0635 2.10216C17.4295 2.55843 14.9394 3.62245 12.7926 5.209C10.6459 6.79556 8.90205 8.86057 7.70087 11.2387C6.49969 13.6167 5.87452 16.2418 5.87542 18.9037V31.3963C5.87542 31.7343 5.80854 32.069 5.67862 32.3813C5.54869 32.6937 5.35825 32.9774 5.11817 33.2164C4.87809 33.4555 4.59308 33.6451 4.2794 33.7744C3.96573 33.9038 3.62953 33.9704 3.29001 33.9704C2.55005 33.9704 1.8404 34.263 1.31717 34.784C0.793947 35.3049 0.5 36.0114 0.5 36.7481C0.5 37.4849 0.793947 38.1914 1.31717 38.7123C1.8404 39.2333 2.55005 39.5259 3.29001 39.5259H42.7184C43.4584 39.5259 44.168 39.2333 44.6912 38.7123C45.2145 38.1914 45.5084 37.4849 45.5084 36.7481C45.5084 36.0114 45.2145 35.3049 44.6912 34.784C44.168 34.263 43.4584 33.9704 42.7184 33.9704C42.0327 33.9704 41.3751 33.6992 40.8903 33.2164C40.4054 32.7337 40.133 32.079 40.133 31.3963V23.1481C37.7154 23.1378 35.342 22.5021 33.2455 21.3034C31.149 20.1046 29.4014 18.384 28.1741 16.3102C26.9468 14.2364 26.2818 11.8806 26.2445 9.47386C26.2072 7.06712 26.7987 4.69203 27.9611 2.58148ZM16.4961 47.2222C16.4961 46.4855 16.79 45.779 17.3132 45.258C17.8365 44.7371 18.5461 44.4444 19.2861 44.4444H26.7261C27.466 44.4444 28.1757 44.7371 28.6989 45.258C29.2221 45.779 29.5161 46.4855 29.5161 47.2222C29.5161 47.9589 29.2221 48.6655 28.6989 49.1864C28.1757 49.7073 27.466 50 26.7261 50H19.2861C18.5461 50 17.8365 49.7073 17.3132 49.1864C16.79 48.6655 16.4961 47.9589 16.4961 47.2222Z" fill="#111111"/>
<circle cx="39.5" cy="9.5" r="9.5" fill="#FF3D00"/>
</g>
<defs>
<clipPath id="clip0_16_11">
<rect width="50" height="50" fill="white"/>
</clipPath>
</defs>
</svg>
