<svg width="50" height="50" viewBox="0 0 50 50" fill="none" xmlns="http://www.w3.org/2000/svg">
<path d="M31.8571 25C31.8571 26.705 31.1798 28.3401 29.9743 29.5457C28.7687 30.7513 27.1335 31.4286 25.4286 31.4286C23.7236 31.4286 22.0885 30.7513 20.8829 29.5457C19.6773 28.3401 19 26.705 19 25C19 23.295 19.6773 21.6599 20.8829 20.4543C22.0885 19.2487 23.7236 18.5714 25.4286 18.5714C27.1335 18.5714 28.7687 19.2487 29.9743 20.4543C31.1798 21.6599 31.8571 23.295 31.8571 25Z" stroke="black" stroke-width="4" stroke-linecap="round" stroke-linejoin="round"/>
<path d="M4 25C7.42857 16.2207 15.4343 10 25.4286 10C35.4229 10 43.4286 16.2207 46.8571 25C43.4286 33.7793 35.4229 40 25.4286 40C15.4343 40 7.42857 33.7793 4 25Z" stroke="black" stroke-width="4" stroke-linecap="round" stroke-linejoin="round"/>
</svg>
