<svg width="50" height="50" viewBox="0 0 50 50" fill="none" xmlns="http://www.w3.org/2000/svg">
<path d="M44 16.6715H36.875V12.4102C36.875 6.19683 32.3387 0.65002 26.1637 0.0548681C24.5141 -0.104292 22.8494 0.0837372 21.2764 0.606907C19.7035 1.13008 18.2569 1.97685 17.0294 3.09296C15.8018 4.20908 14.8205 5.56992 14.1481 7.08829C13.4758 8.60666 13.1273 10.2491 13.125 11.9103V16.6715H6V50H44V16.6715ZM25 38.097C22.3875 38.097 20.25 35.9544 20.25 33.3358C20.25 30.7171 22.3875 28.5745 25 28.5745C27.6125 28.5745 29.75 30.7171 29.75 33.3358C29.75 35.9544 27.6125 38.097 25 38.097ZM17.875 16.6715V11.9103C17.875 7.95848 21.0575 4.76847 25 4.76847C28.9425 4.76847 32.125 7.95848 32.125 11.9103V16.6715H17.875Z" fill="black"/>
</svg>
